UNKNOWN
version=1
nRows=77
nColumns=9
inDegrees=no
endheader
time	time	pelvis_tilt	hip_flexion_r	knee_angle_r	ankle_angle_r	hip_flexion_l	knee_angle_l	ankle_angle_l
    176.00000000	      6.13000000	     -6.86263802	    -23.53130303	     -1.01607456	      5.87680830	     14.96295569	    -22.28381598	      1.48983329
    177.00000000	      6.14000000	     -6.90884802	    -25.36319073	     -0.57990525	      5.92577110	     13.38480933	    -16.82515877	      1.79331944
    178.00000000	      6.15000000	     -7.84451038	    -26.26819381	     -0.17139824	      6.07850547	     13.45004355	    -12.94352734	      2.74232432
    179.00000000	      6.16000000	     -8.55853518	    -27.02306067	     -0.16696694	      6.11156696	     13.32904270	     -9.01237274	      3.43263555
    180.00000000	      6.17000000	     -9.10586527	    -27.66327187	     -0.49043697	      6.10596521	     13.11172314	     -5.33767023	      3.81793311
    181.00000000	      6.18000000	     -8.85176519	    -29.77604737	     -0.90484043	      7.23988209	     10.41918461	     -0.54473118	      1.09692953
    182.00000000	      6.19000000	     -9.44767815	    -31.00612898	     -2.29661166	      6.73855658	      9.08422425	      1.29632780	      3.22913984
    183.00000000	      6.20000000	    -10.01239142	    -31.50541276	     -2.91731150	      6.86626968	      8.79803415	      2.83347358	      3.41773953
    184.00000000	      6.21000000	     -9.38548924	    -32.22376206	     -4.28912279	      7.90773850	      7.93006830	      4.08070407	      3.17036553
    185.00000000	      6.22000000	     -8.92518958	    -32.53809666	     -5.56515156	      7.59923174	      8.01443527	      3.60822934	      3.06182376
    186.00000000	      6.23000000	     -8.74383848	    -32.80025494	     -7.12037754	      7.35903979	      7.87778128	      2.56864962	      2.90766144
    187.00000000	      6.24000000	     -8.46889551	    -32.94270275	     -9.00222980	      7.06719539	      7.71770019	      1.04298805	      2.65151616
    188.00000000	      6.25000000	     -8.10024396	    -32.94488163	    -11.18037909	      6.68252626	      7.51169810	     -0.70910613	      2.24620562
    189.00000000	      6.26000000	     -7.63825766	    -32.77678693	    -13.58863598	      6.12436769	      7.29631000	     -2.47744678	      1.60507073
    190.00000000	      6.27000000	     -7.04508652	    -32.39230632	    -16.31452435	      5.28012517	      7.09515304	     -4.21784458	      0.63901931
    191.00000000	      6.28000000	     -6.28740695	    -31.72602489	    -19.43544365	      4.04216087	      6.93190706	     -5.88666607	     -0.65966414
    192.00000000	      6.29000000	     -4.80516995	    -30.34258496	    -22.86693365	      2.16980406	      6.39197827	     -5.87771098	     -3.97864637
    193.00000000	      6.30000000	     -4.01972242	    -29.40250402	    -26.32887535	      0.20561720	      6.28316364	     -8.10489691	     -4.95190418
    194.00000000	      6.31000000	     -2.89717045	    -27.75513937	    -30.42772355	     -3.20802597	      6.06388048	     -9.31054094	     -5.16885724
    195.00000000	      6.32000000	     -1.16189145	    -26.15486058	    -33.72382433	     -7.76049893	      6.01953800	    -11.00680187	     -4.71586885
    196.00000000	      6.33000000	     -0.20450709	    -24.83264196	    -37.59282951	    -10.55852309	      5.79546922	    -13.29620290	     -4.93835783
    197.00000000	      6.34000000	      1.24929784	    -22.88695748	    -40.93522766	    -16.42091064	      5.53398430	    -14.42650078	     -2.56132047
    198.00000000	      6.35000000	      1.92893461	    -21.02901982	    -44.24832645	    -21.30307668	      5.22760886	    -15.95875815	     -1.33697807
    199.00000000	      6.36000000	      2.39496308	    -19.20052447	    -47.32809683	    -25.56579070	      4.77675020	    -17.21319186	     -0.11973053
    200.00000000	      6.37000000	      2.58737276	    -17.66948129	    -50.19912959	    -27.17027862	      3.87832941	    -17.62396044	      0.19694291
    201.00000000	      6.38000000	      2.78892327	    -15.43749775	    -52.68650017	    -29.93765002	      3.18059397	    -17.97638979	      2.30525593
    202.00000000	      6.39000000	      2.75259819	    -13.89993722	    -54.88092697	    -30.29373002	      2.18270059	    -18.42323491	      2.48045106
    203.00000000	      6.40000000	      2.82189083	    -12.22854996	    -56.60335246	    -28.52564300	      1.05193303	    -18.31153391	      3.42552365
    204.00000000	      6.41000000	      2.50148379	    -10.82173631	    -57.50832832	    -27.89697161	     -0.21008329	    -17.52550747	      3.72985986
    205.00000000	      6.42000000	      2.45098730	     -9.02897230	    -58.85194827	    -24.25469627	     -1.40262127	    -17.11843581	      4.25204060
    206.00000000	      6.43000000	      2.08639291	     -7.39006212	    -59.40573395	    -23.48244720	     -2.67497008	    -16.15996919	      4.56959561
    207.00000000	      6.44000000	      2.07289740	     -5.52396201	    -60.08433991	    -20.01256550	     -4.03583602	    -15.19851072	      4.95361178
    208.00000000	      6.45000000	      1.89888006	     -3.74873033	    -60.31953933	    -18.72366773	     -5.35979431	    -14.14199097	      5.22621935
    209.00000000	      6.46000000	      1.65929432	     -1.97447340	    -60.39309977	    -18.16230589	     -6.47828968	    -13.39163086	      5.46570380
    210.00000000	      6.47000000	      1.48692410	     -0.38742685	    -60.01121431	    -16.20244024	     -7.91498774	    -12.17916406	      5.74816699
    211.00000000	      6.48000000	      1.34771694	      1.35780648	    -59.58421777	    -14.28190614	     -9.02794835	    -11.20722952	      5.84023836
    212.00000000	      6.49000000	      1.25391687	      2.97132650	    -58.99044275	    -13.71742108	     -9.93104772	    -10.77724839	      5.97952705
    213.00000000	      6.50000000	      0.92463914	      4.33498166	    -57.64570972	    -11.35644791	    -11.08661187	     -9.73992237	      6.15952948
    214.00000000	      6.51000000	      0.73468065	      5.74160222	    -56.22096329	     -9.09119250	    -12.01667644	     -8.98879810	      6.21297792
    215.00000000	      6.52000000	      0.88243117	      7.14840790	    -54.89456150	     -8.63225668	    -12.80119577	     -8.68476952	      6.35544280
    216.00000000	      6.53000000	      0.60514974	      8.22203309	    -52.73628804	     -6.43357891	    -13.91836017	     -7.62187896	      6.63511037
    217.00000000	      6.54000000	      0.89562054	      9.46932351	    -50.87144320	     -6.01804603	    -14.67079935	     -7.36460441	      6.75462185
    218.00000000	      6.55000000	      0.65004721	     10.21691507	    -48.11086923	     -4.14844052	    -15.81236792	     -6.28730514	      6.99371144
    219.00000000	      6.56000000	      1.09305765	     11.27946499	    -45.79476677	     -3.83588517	    -16.57349973	     -6.01494296	      7.10785235
    220.00000000	      6.57000000	      0.68702378	     11.45423045	    -42.16736951	     -2.19034336	    -17.77292653	     -4.98506272	      7.24061515
    221.00000000	      6.58000000	      1.27373814	     12.28474117	    -39.51003784	     -1.91592220	    -18.63394902	     -4.60364779	      7.42437988
    222.00000000	      6.59000000	      1.82175465	     13.02583210	    -36.55998443	     -1.53395192	    -19.49260967	     -4.11440295	      7.65817306
    223.00000000	      6.60000000	      0.98447540	     11.75657410	    -31.81207077	     -0.21979995	    -21.45056331	     -2.96910950	      8.20147795
    224.00000000	      6.61000000	      1.68232391	     12.38240160	    -28.58405430	      0.35051748	    -22.23898606	     -2.57154556	      8.38162472
    225.00000000	      6.62000000	      1.30218578	     11.86959807	    -23.77175836	      1.01455030	    -23.36895627	     -2.18447516	      9.00226638
    226.00000000	      6.63000000	      1.98623850	     12.47832830	    -20.55522309	      1.59123912	    -24.17272029	     -1.67569089	      9.17671540
    227.00000000	      6.64000000	      1.51575981	     11.75551847	    -15.35547059	      1.25924618	    -25.20765709	     -1.40137002	      9.84354028
    228.00000000	      6.65000000	      2.05181331	     12.05000990	    -12.01749594	      2.00294384	    -26.00561332	     -1.26593458	      9.89490744
    229.00000000	      6.66000000	      1.65808461	     11.32550369	     -7.33705491	      1.12739826	    -27.11148455	     -0.83527757	     10.70959883
    230.00000000	      6.67000000	      2.19543753	     11.73089026	     -4.59631374	      1.90553665	    -27.76144539	     -0.73724451	     10.73785232
    231.00000000	      6.68000000	      2.54700354	     11.91812913	     -1.85300290	      2.28752903	    -28.39559992	     -0.88696057	     10.82556790
    232.00000000	      6.69000000	      2.01794592	     10.94894703	      1.43119085	      0.56588278	    -29.85461118	     -0.60866998	     11.99637253
    233.00000000	      6.70000000	      2.34813387	     11.13295698	      2.81491522	      1.38540265	    -30.51466612	     -1.12551093	     11.77582453
    234.00000000	      6.71000000	      2.43469371	     11.27481146	      3.20634961	      1.90651686	    -31.30570811	     -1.66784176	     11.75257209
    235.00000000	      6.72000000	      2.61316133	     11.66608928	      3.29355717	      1.90589945	    -31.92740877	     -1.86266983	     11.75252067
    236.00000000	      6.73000000	      2.29480894	     11.93541313	      1.74951450	      2.00590059	    -32.54832353	     -3.22435210	     11.76981077
    237.00000000	      6.74000000	      2.07252781	     12.16743407	      0.07778866	      2.06856268	    -33.13248770	     -4.30708709	     11.95311389
    238.00000000	      6.75000000	      1.80546616	     12.33115959	     -1.82894536	      1.79857416	    -33.57207571	     -5.65408530	     12.00514859
    239.00000000	      6.76000000	      1.45692760	     12.46848879	     -3.88636652	      1.24949792	    -33.80611641	     -7.29982315	     11.98386312
    240.00000000	      6.77000000	      1.07680265	     12.48254565	     -5.93896681	      0.42314774	    -33.90427151	     -9.31205466	     11.65858619
    241.00000000	      6.78000000	      0.65786590	     12.40068798	     -7.93557336	     -0.57061829	    -33.81310556	    -11.71627821	     11.06351753
    242.00000000	      6.79000000	      0.32629151	     11.77359032	     -8.88823411	     -2.69695079	    -33.29550895	    -15.03125036	     10.03850230
    243.00000000	      6.80000000	     -0.42114066	     11.71842490	    -11.37785327	     -3.51704898	    -32.97047466	    -17.76893420	      8.96258292
    244.00000000	      6.81000000	     -1.16682609	     11.25589117	    -12.67777115	     -3.57282967	    -31.95710281	    -21.69855189	      5.89624308
    245.00000000	      6.82000000	     -1.89508121	     10.92140929	    -14.44615454	     -3.63981516	    -30.83299882	    -25.78117495	      3.52663454
    246.00000000	      6.83000000	     -2.76053263	     10.45803246	    -15.99918811	     -3.13216188	    -29.46846774	    -30.06584762	      0.32162747
    247.00000000	      6.84000000	     -3.84002158	      9.76942829	    -16.99017677	     -1.51694878	    -27.98152429	    -33.75335164	     -4.85896181
    248.00000000	      6.85000000	     -4.69001193	      8.98226785	    -17.83388052	     -0.45850857	    -26.42361162	    -37.49321281	    -10.21835895
    249.00000000	      6.86000000	     -5.21433237	      8.02143717	    -18.22475965	      0.31058925	    -24.67228413	    -41.14663421	    -15.48962799
    250.00000000	      6.87000000	     -5.49478864	      6.94697767	    -18.42370120	      0.87996912	    -22.87308269	    -44.50427005	    -20.58978028
    251.00000000	      6.88000000	     -5.63367042	      5.79141710	    -18.48387143	      1.23654082	    -21.06743787	    -47.67858206	    -24.64622216
    252.00000000	      6.89000000	     -5.62805583	      4.52432154	    -18.57031942	      1.41294529	    -19.41669909	    -50.70577289	    -26.55694390
